<svg xmlns="http://www.w3.org/2000/svg" xmlns:xlink="http://www.w3.org/1999/xlink" xml:space="preserve" version="1.1" style="shape-rendering:geometricPrecision;text-rendering:geometricPrecision;image-rendering:optimizeQuality;" viewBox="0 0 478 1496.25" x="0px" y="0px" fill-rule="evenodd" clip-rule="evenodd"><defs><style type="text/css">

    .fil0 {fill:white}

  </style></defs><g><path class="fil0" d="M191 673c-32,-55 -65,-91 -127,-160 -109,-119 -46,-513 -46,-513l442 0c0,0 63,394 -46,513 -62,69 -95,105 -127,160l0 404c91,6 159,30 159,59 0,81 -413,81 -413,0 0,-29 67,-53 158,-59l0 -404zm34 -24c-36,-75 -60,-103 -123,-176 -85,-98 -36,-419 -36,-419l346 0c0,0 49,321 -36,419 -63,73 -87,101 -123,176l-28 0z"/></g><text x="0" y="1212" fill="#000000" font-size="5px" font-weight="bold" font-family="'Helvetica Neue', Helvetica, Arial-Unicode, Arial, Sans-serif">Created by mohkamil</text><text x="0" y="1217" fill="#000000" font-size="5px" font-weight="bold" font-family="'Helvetica Neue', Helvetica, Arial-Unicode, Arial, Sans-serif">from the Noun Project</text></svg>
